<svg xmlns="http://www.w3.org/2000/svg" viewBox="0 0 405.09 405.09"><defs><style>.cls-1{fill:#54616c;}</style></defs><g id="Capa_2" data-name="Capa 2"><g id="Capa_1-2" data-name="Capa 1"><path class="cls-1" d="M202.54,405.09C90.86,405.09,0,314.23,0,202.55S90.86,0,202.54,0,405.09,90.86,405.09,202.55,314.23,405.09,202.54,405.09Zm0-396.41C95.65,8.68,8.68,95.65,8.68,202.55s87,193.86,193.86,193.86,193.87-87,193.87-193.86S309.44,8.68,202.54,8.68Z"/><path class="cls-1" d="M134.48,209.78a5.85,5.85,0,1,1-5.84-5.85A5.85,5.85,0,0,1,134.48,209.78Z"/><path class="cls-1" d="M194,153a5.85,5.85,0,1,1-5.85-5.85A5.86,5.86,0,0,1,194,153Z"/><path class="cls-1" d="M194,177.4a5.85,5.85,0,1,1-5.85-5.85A5.86,5.86,0,0,1,194,177.4Z"/><path class="cls-1" d="M194,209.78a5.86,5.86,0,0,1-5.85,5.84H156.1a5.85,5.85,0,0,1,0-11.69h32.05A5.86,5.86,0,0,1,194,209.78Z"/><path class="cls-1" d="M134.48,237.25a5.85,5.85,0,1,1-5.84-5.85A5.85,5.85,0,0,1,134.48,237.25Z"/><path class="cls-1" d="M193.5,234.89c-.14,1.69-.2,3.39-.19,5.09a5.84,5.84,0,0,1-5.16,3.11H156.1a5.85,5.85,0,0,1,0-11.69h32.05A5.87,5.87,0,0,1,193.5,234.89Z"/><path class="cls-1" d="M134.48,264.71a5.85,5.85,0,1,1-5.84-5.84A5.85,5.85,0,0,1,134.48,264.71Z"/><path class="cls-1" d="M194,264.71a5.86,5.86,0,0,1-5.85,5.85H156.1a5.85,5.85,0,0,1,0-11.69h32.05A5.86,5.86,0,0,1,194,264.71Z"/><path class="cls-1" d="M117.4,135.65V190.1h47.09V135.65Zm42.09,49.45H122.4V140.65h37.09Z"/><path class="cls-1" d="M152.24,172.56a5.26,5.26,0,0,0-.65-.38l-3.46-1.73c3.71-1.62,4.88-3.88,4.94-4a1.31,1.31,0,0,0,0-1.16c-.93-1.85-1-5.26-1.13-8,0-.91-.06-1.77-.11-2.53-.44-6.09-5-10.7-10.67-10.85h-.43c-5.67.15-10.23,4.76-10.66,10.85-.06.76-.09,1.62-.12,2.53-.09,2.74-.2,6.15-1.13,8a1.31,1.31,0,0,0,0,1.16c.06.11,1.23,2.37,4.94,4l-3.46,1.73a6.11,6.11,0,0,0-.65.38,5.4,5.4,0,0,0-2.34,4.47v9.52a1.29,1.29,0,1,0,2.57,0V177a2.84,2.84,0,0,1,1.58-2.55l.5-.25,2.32-1.16s0,0,0,0l1.4-.7,0,0,.07,0,1.5,1.43a5.3,5.3,0,0,0,7.37,0l1.5-1.43.07,0,0,0,1.41.7,0,0,2.32,1.16.5.25A2.83,2.83,0,0,1,152,177v9.52a1.29,1.29,0,1,0,2.57,0V177A5.4,5.4,0,0,0,152.24,172.56Zm-16.67-4.16-.1,0v0a9.35,9.35,0,0,1-4.14-2.66,13.49,13.49,0,0,0,.74-3.08,1.42,1.42,0,0,0,.08.18,1.1,1.1,0,0,1,0-.18,9.63,9.63,0,0,0,3.4,4.19Zm7.39,3.49a3,3,0,0,1-4,0l-1.2-1.14a2.7,2.7,0,0,0,.31-1.26v-1.38l.1,0v0a9.58,9.58,0,0,0,2.74.44H141a9.58,9.58,0,0,0,2.74-.44v0l.1,0v1.38a2.7,2.7,0,0,0,.31,1.26ZM141,166h-.48a7,7,0,0,1-6.5-7,1.29,1.29,0,0,0-1.29-1.29l-.21,0c0-.11,0-.22,0-.33,0-.89.06-1.73.11-2.44a9.56,9.56,0,0,1,2.6-6A8,8,0,0,1,141,146.5H141a7.93,7.93,0,0,1,5.75,2.44,9.57,9.57,0,0,1,2.61,6c0,.71.08,1.55.11,2.44v.23l-.11-.17a11.64,11.64,0,0,0-6.26-4.48,16,16,0,0,0-4.9-.78,1.33,1.33,0,0,0-.9.39L135,155a1.28,1.28,0,0,0,0,1.82,1.3,1.3,0,0,0,1.83,0l1.93-2c1.65.08,6.9.69,9,5.13a1.19,1.19,0,0,1,.08.16A7,7,0,0,1,141,166Zm5.42,2.43v0l-.1,0v-1.55a9.57,9.57,0,0,0,3.4-4.19c0,.06,0,.12,0,.18a1.42,1.42,0,0,0,.08-.18,14,14,0,0,0,.74,3.08A9.35,9.35,0,0,1,146.42,168.4Z"/><path class="cls-1" d="M221.47,189.33V114.06h-126V283.44H73.7a5.85,5.85,0,0,0-5.84,5.85,33.34,33.34,0,0,0,33.31,33.31h87a33.35,33.35,0,0,0,33.31-32.68,58.48,58.48,0,0,1-11.68-9.39v8.76a21.63,21.63,0,0,1-43.25,0,5.85,5.85,0,0,0-5.84-5.85l-53.67.12V176.47h-.14V125.68H209.73v39.77h.05v33.28A59.68,59.68,0,0,1,221.47,189.33ZM155.32,295l.19.91a30.46,30.46,0,0,0,6.08,13.11l1.49,1.85H101.17a21.7,21.7,0,0,1-20.33-14.26l-.55-1.51Z"/><path class="cls-1" d="M129.14,80.35v22.37h11.44V92H243.43l0,89.25a58.69,58.69,0,0,1,9-.7c.9,0,1.8,0,2.69.07V80.35Z"/><path class="cls-1" d="M162.85,46.65V69h11.44V58.27H277.14l0,127.69.24.11a59,59,0,0,1,11.46,7V46.65Z"/><rect class="cls-1" x="209.73" y="125.68" width="0.05" height="39.77"/><path class="cls-1" d="M264.88,214.38a27.83,27.83,0,1,0,13.43,37A27.85,27.85,0,0,0,264.88,214.38ZM271.06,248a19.83,19.83,0,1,1-9.57-26.36A19.84,19.84,0,0,1,271.06,248Z"/><path class="cls-1" d="M273.31,196.34a47.74,47.74,0,1,0,10.09,80.13,47.72,47.72,0,0,0-10.09-80.13Zm15.8,60.08a39.75,39.75,0,1,1-19.19-52.83A39.79,39.79,0,0,1,289.11,256.42Z"/><path class="cls-1" d="M264.88,214.38a27.83,27.83,0,1,0,13.43,37A27.85,27.85,0,0,0,264.88,214.38ZM271.06,248a19.83,19.83,0,1,1-9.57-26.36A19.84,19.84,0,0,1,271.06,248Z"/><path class="cls-1" d="M299.55,317.64c-5.39-10.65-12.09-23.92-15.22-39.31a4,4,0,0,0-.93-1.86,4,4,0,0,0-4.35-1.1l-22.09,8a4,4,0,0,0-2.38,2.34,3.91,3.91,0,0,0-.25,1.58,4.07,4.07,0,0,0,.48,1.76c7.58,13.89,11.49,28.25,14.64,39.78,3.85,14.14,6.63,24.36,14,28.2l.47.22a13,13,0,0,0,5.58,1.2,19.59,19.59,0,0,0,6.71-1.3c5.94-2.15,9.64-5.26,11.32-9.5C310.72,339.73,305.79,330,299.55,317.64Zm.58,27.09c-.78,2-2.95,3.59-6.61,4.92-4.06,1.48-5.79.59-6.35.29-4.29-2.22-6.94-11.94-10-23.19-3-10.83-6.55-24.05-13.18-37.4l13.53-4.91c3.6,14.47,9.82,26.76,14.9,36.81S302,340.13,300.13,344.73Z"/><path class="cls-1" d="M264.88,214.38a27.83,27.83,0,1,0,13.43,37A27.85,27.85,0,0,0,264.88,214.38ZM271.06,248a19.83,19.83,0,1,1-9.57-26.36A19.84,19.84,0,0,1,271.06,248Z"/></g></g></svg>